<?xml version="1.0" encoding="UTF-8"?>
<svg version="1.1" xmlns="http://www.w3.org/2000/svg" width="225" height="225">
<path d="M0 0 C74.25 0 148.5 0 225 0 C225 74.25 225 148.5 225 225 C150.75 225 76.5 225 0 225 C0 150.75 0 76.5 0 0 Z " fill="#FDFDFD" transform="translate(0,0)"/>
<path d="M0 0 C12.01094289 -0.85955739 26.34042714 3.97130047 35.68188477 11.35449219 C43.09833319 17.79898441 43.09833319 17.79898441 44.92407227 22.17480469 C44.40458008 22.54992187 43.88508789 22.92503906 43.34985352 23.31152344 C32.9536687 30.94051673 24.66832681 40.22438997 21.92407227 53.17480469 C20.43806152 66.59354551 22.16789999 78.93002151 30.23657227 90.08496094 C35.90926871 97.11017529 41.98608662 101.88048458 49.92407227 106.17480469 C47.15746775 125.54103627 31.83500068 146.75650066 16.73657227 158.67480469 C9.83517198 163.45581389 3.16676145 163.98732631 -5.07592773 163.17480469 C-10.29954359 161.93891422 -15.37233533 160.29272611 -20.33374023 158.24121094 C-31.93372177 153.6320928 -42.84637492 155.75549619 -54.20092773 159.67480469 C-63.40460803 162.84778096 -72.10313158 165.72633158 -81.71264648 162.20996094 C-88.915512 158.48351977 -94.49772325 153.10365277 -99.38842773 146.73730469 C-100.09563965 145.82259399 -100.09563965 145.82259399 -100.81713867 144.8894043 C-121.21156136 118.13974989 -133.14231667 86.20737864 -129.67749023 52.27246094 C-127.09969814 36.32027999 -118.7633645 20.45361271 -105.59545898 10.80761719 C-92.94060411 2.60648643 -80.32133157 -1.07892294 -65.29467773 1.93261719 C-58.59170409 3.66285632 -52.11361631 5.74423716 -45.73608398 8.44042969 C-37.38966116 10.74458166 -30.47427251 7.97134711 -22.57592773 5.23730469 C-14.92069034 2.61459318 -8.05893848 0.67860754 0 0 Z " fill="#000000" transform="translate(152.075927734375,55.8251953125)"/>
<path d="M0 0 C0.97922125 15.34113298 -3.85250873 25.60997194 -13.79296875 37.06640625 C-20.62484857 44.30475947 -28.17663994 48.25897221 -38 50 C-39.9995052 50.04448548 -42.00077569 50.05569687 -44 50 C-44.84547609 36.54283891 -40.89452686 25.5376942 -32.41015625 15.03125 C-24.50953506 6.55434821 -11.86641787 -1.03186242 0 0 Z " fill="#010101" transform="translate(157,6)"/>
</svg>
