<?xml version="1.0" encoding="UTF-8"?>
<svg version="1.1" xmlns="http://www.w3.org/2000/svg" width="225" height="225">
<path d="M0 0 C74.25 0 148.5 0 225 0 C225 74.25 225 148.5 225 225 C150.75 225 76.5 225 0 225 C0 150.75 0 76.5 0 0 Z " fill="#FEFEFE" transform="translate(0,0)"/>
<path d="M0 0 C1.36491449 1.15407404 2.72378697 2.31563271 4.0625 3.5 C-0.61216337 9.12303757 -5.61515667 14.29741554 -10.8125 19.4375 C-11.59625 20.21673828 -12.38 20.99597656 -13.1875 21.79882812 C-15.10188581 23.70154085 -17.01858034 25.60186171 -18.9375 27.5 C-19.60394531 27.04109375 -20.27039063 26.5821875 -20.95703125 26.109375 C-35.29647714 16.56311452 -49.35386366 13.92353026 -66.41796875 17.16015625 C-69.11793094 18.06014365 -71.45171176 19.11809798 -73.9375 20.5 C-74.865625 20.99757812 -75.79375 21.49515625 -76.75 22.0078125 C-89.26450559 29.31927636 -97.63635623 40.98662195 -101.375 55 C-104.15024602 71.34650404 -100.46710583 85.71391907 -91.0859375 99.15234375 C-86.25303263 104.96972924 -80.57288175 108.94269812 -73.9375 112.5 C-72.761875 113.15355469 -72.761875 113.15355469 -71.5625 113.8203125 C-65.16739497 116.75140231 -58.79480401 116.87816929 -51.875 116.9375 C-50.95291748 116.94773193 -50.03083496 116.95796387 -49.08081055 116.96850586 C-36.53656237 116.80872787 -24.96923143 112.33102628 -15.9375 103.5 C-10.88755261 97.24768418 -8.7564176 91.25202339 -5.9375 83.5 C-21.1175 83.5 -36.2975 83.5 -51.9375 83.5 C-51.9375 72.61 -51.9375 61.72 -51.9375 50.5 C-41.65445071 50.47744869 -31.37141772 50.45908475 -21.08834934 50.44818783 C-16.3140172 50.44295907 -11.53970279 50.43586156 -6.76538086 50.42456055 C-2.16183738 50.4137314 2.44168899 50.40772311 7.04524422 50.40512276 C8.80559623 50.40326856 10.56594726 50.39964804 12.32629204 50.39426994 C14.78322277 50.38705914 17.24008195 50.38600907 19.69702148 50.38647461 C20.79969109 50.3810817 20.79969109 50.3810817 21.92463684 50.37557983 C26.94844784 50.38594784 26.94844784 50.38594784 28.0625 51.5 C31.71804466 73.92969995 28.401978 97.80448782 15.85546875 117.0546875 C13.71134304 120.00614601 11.47642947 122.76615217 9.0625 125.5 C8.36511719 126.30695313 7.66773438 127.11390625 6.94921875 127.9453125 C-0.86543362 136.37427941 -10.43635424 141.80187668 -21.0625 145.875 C-21.68261963 146.11371826 -22.30273926 146.35243652 -22.94165039 146.59838867 C-43.26670726 153.90167421 -67.67975449 152.79184201 -87.1730957 143.76416016 C-108.34388051 133.42638655 -123.30918032 117.3947875 -131.9375 95.5 C-132.23269531 94.75492187 -132.52789062 94.00984375 -132.83203125 93.2421875 C-140.00058614 73.53748982 -138.08756896 51.5383886 -129.9375 32.5 C-119.04262192 9.24873581 -100.98334906 -5.81324585 -77.30078125 -14.89453125 C-50.41711116 -22.97963076 -21.79893037 -17.29830851 0 0 Z " fill="#34A853" transform="translate(164.9375,45.5)"/>
<path d="M0 0 C1.36491449 1.15407404 2.72378697 2.31563271 4.0625 3.5 C-0.61216337 9.12303757 -5.61515667 14.29741554 -10.8125 19.4375 C-11.59625 20.21673828 -12.38 20.99597656 -13.1875 21.79882812 C-15.10188581 23.70154085 -17.01858034 25.60186171 -18.9375 27.5 C-19.60394531 27.04109375 -20.27039063 26.5821875 -20.95703125 26.109375 C-35.29647714 16.56311452 -49.35386366 13.92353026 -66.41796875 17.16015625 C-69.11793094 18.06014365 -71.45171176 19.11809798 -73.9375 20.5 C-74.865625 20.99757812 -75.79375 21.49515625 -76.75 22.0078125 C-89.26450559 29.31927636 -97.63635623 40.98662195 -101.375 55 C-103.01185461 64.65924092 -102.03145376 74.02831737 -99.9375 83.5 C-101.14453125 84.43880208 -102.3515625 85.37760417 -103.55859375 86.31640625 C-104.33009766 86.91646484 -105.10160156 87.51652344 -105.89648438 88.13476562 C-108.3046875 90.0078125 -110.71289062 91.88085938 -113.12109375 93.75390625 C-113.9085498 94.36637207 -114.69600586 94.97883789 -115.50732422 95.60986328 C-116.30928223 96.2336084 -117.11124023 96.85735352 -117.9375 97.5 C-118.79746582 98.1688623 -119.65743164 98.83772461 -120.54345703 99.52685547 C-122.67480469 101.18457031 -124.80615234 102.84228516 -126.9375 104.5 C-137.80764779 90.61795833 -138.21479403 70.22881778 -136.25 53.5 C-132.71597385 31.53504581 -120.31503904 11.24372875 -102.4375 -2 C-70.6489317 -23.24098524 -30.46891162 -24.17827959 0 0 Z " fill="#EA4335" transform="translate(164.9375,45.5)"/>
<path d="M0 0 C10.28304929 -0.02255131 20.56608228 -0.04091525 30.84915066 -0.05181217 C35.6234828 -0.05704093 40.39779721 -0.06413844 45.17211914 -0.07543945 C49.77566262 -0.0862686 54.37918899 -0.09227689 58.98274422 -0.09487724 C60.74309623 -0.09673144 62.50344726 -0.10035196 64.26379204 -0.10573006 C66.72072277 -0.11294086 69.17758195 -0.11399093 71.63452148 -0.11352539 C72.73719109 -0.1189183 72.73719109 -0.1189183 73.86213684 -0.12442017 C78.88594784 -0.11405216 78.88594784 -0.11405216 80 1 C83.66498282 23.48761066 80.3247606 47.43093628 67.6875 66.6953125 C63.89860342 71.90504529 60.00663402 75.99756191 55 80 C54.49662109 79.60731934 53.99324219 79.21463867 53.47460938 78.81005859 C51.15033152 76.99761186 48.82517093 75.18630086 46.5 73.375 C45.70851562 72.75753906 44.91703125 72.14007813 44.1015625 71.50390625 C39.10734225 67.61496425 34.07893109 63.77767392 29 60 C29.66 59.401875 30.32 58.80375 31 58.1875 C33.57719037 55.58093994 35.83519936 52.78506196 38.0625 49.875 C39.03896484 48.60269531 39.03896484 48.60269531 40.03515625 47.3046875 C42.77797561 42.92540915 42.77797561 42.92540915 46 33 C30.82 33 15.64 33 0 33 C0 22.11 0 11.22 0 0 Z " fill="#4285F3" transform="translate(113,96)"/>
<path d="M0 0 C5.94054093 3.69033603 11.34622542 7.85460224 16.66992188 12.37402344 C20.32290634 15.46700964 24.04727758 18.30496199 28 21 C27.855625 21.55945313 27.71125 22.11890625 27.5625 22.6953125 C25.0128522 33.70837451 25.58153094 44.0480262 28 55 C26.79296875 55.93880208 25.5859375 56.87760417 24.37890625 57.81640625 C23.60740234 58.41646484 22.83589844 59.01652344 22.04101562 59.63476562 C19.6328125 61.5078125 17.22460938 63.38085938 14.81640625 65.25390625 C14.0289502 65.86637207 13.24149414 66.47883789 12.43017578 67.10986328 C11.62821777 67.7336084 10.82625977 68.35735352 10 69 C9.14003418 69.6688623 8.28006836 70.33772461 7.39404297 71.02685547 C5.26269531 72.68457031 3.13134766 74.34228516 1 76 C-9.87014779 62.11795833 -10.27729403 41.72881778 -8.3125 25 C-6.9440998 16.27767927 -4.12090698 7.82209195 0 0 Z " fill="#FABB06" transform="translate(37,74)"/>
</svg>
